<?xml version="1.0" ?><svg fill="black" height="24" viewBox="0 0 24 24" width="24" xmlns="http://www.w3.org/2000/svg"><path clip-rule="evenodd" d="M11.2321 4.09826C10.8445 4.39606 10.3854 4.85618 9.70378 5.54267L5.45999 9.81665V14.6374C5.45999 16.944 6.88541 18.9715 8.97524 19.7673C8.88152 19.246 8.88241 18.7087 8.9813 18.1819L9.00064 18.0789C9.21349 16.9449 10.0496 16.0281 11.1605 15.7199C11.7099 15.5674 12.2901 15.5674 12.8395 15.7199C13.9504 16.0281 14.7865 16.9449 14.9994 18.0789L15.0187 18.1819C15.1176 18.7087 15.1185 19.246 15.0248 19.7673C17.1146 18.9714 18.54 16.9439 18.54 14.6374V9.81663L14.2962 5.54267C13.6146 4.85618 13.1555 4.39606 12.7679 4.09826C12.3974 3.81359 12.1827 3.75 12 3.75C11.8173 3.75 11.6026 3.81359 11.2321 4.09826ZM20.04 11.3273L20.4678 11.7582C20.7596 12.0521 21.2345 12.0538 21.5284 11.7619C21.8224 11.4701 21.8241 10.9952 21.5322 10.7013L15.3239 4.4488C14.6886 3.8089 14.1589 3.27542 13.6818 2.90885C13.1785 2.52211 12.6458 2.25 12 2.25C11.3542 2.25 10.8215 2.52211 10.3182 2.90885C9.8411 3.27542 9.31142 3.8089 8.67609 4.44879L2.46779 10.7013C2.17594 10.9952 2.17762 11.4701 2.47155 11.7619C2.76548 12.0538 3.24035 12.0521 3.53221 11.7582L3.95999 11.3273V14.6374C3.95999 17.8765 6.17421 20.6952 9.3143 21.437C11.0808 21.8543 12.9192 21.8543 14.6857 21.437C17.8258 20.6952 20.04 17.8765 20.04 14.6374V11.3273ZM13.3463 20.1606C13.5828 19.6277 13.6524 19.0338 13.5445 18.4587L13.5251 18.3556C13.417 17.7794 12.9935 17.3193 12.4384 17.1652C12.1515 17.0856 11.8485 17.0856 11.5616 17.1652C11.0065 17.3193 10.583 17.7794 10.4749 18.3556L10.4556 18.4587C10.3476 19.0338 10.4172 19.6277 10.6537 20.1606C11.5473 20.2798 12.4527 20.2798 13.3463 20.1606Z" fill="black" fill-rule="evenodd"/></svg>